Coordinates
version=1
nRows=13
nColumns=40
inDegrees=yes

Units are S.I. units (second, meters, Newtons, ...)
If the header above contains a line with 'inDegrees', this indicates whether rotational values are in degrees (yes) or radians (no).

endheader
time	pelvis_tilt	pelvis_list	pelvis_rotation	pelvis_tx	pelvis_ty	pelvis_tz	hip_flexion_r	hip_adduction_r	hip_rotation_r	knee_angle_r	knee_angle_r_beta	ankle_angle_r	subtalar_angle_r	mtp_angle_r	hip_flexion_l	hip_adduction_l	hip_rotation_l	knee_angle_l	knee_angle_l_beta	ankle_angle_l	subtalar_angle_l	mtp_angle_l	lumbar_extension	lumbar_bending	lumbar_rotation	arm_flex_r	arm_add_r	arm_rot_r	elbow_flex_r	pro_sup_r	wrist_flex_r	wrist_dev_r	arm_flex_l	arm_add_l	arm_rot_l	elbow_flex_l	pro_sup_l	wrist_flex_l	wrist_dev_l
      2.23000002	     33.29536921	      3.24092160	   -166.40202019	     -0.51825617	      0.84329959	      0.54599682	     15.77897753	     14.94629287	     24.24830820	     26.04256281	      0.45452847	    -12.97435998	      0.00000000	      0.00000000	     64.63706956	     10.95540564	     13.46388531	     41.17256216	      0.71859677	      1.84332402	      0.00000000	      0.00000000	     14.67683617	     -6.83955006	      3.04964662	     53.21180481	     15.40266226	     77.89997825	    110.80526400	     39.97143440	      0.00000000	      0.00000000	     34.73311616	      8.84980415	     69.96892050	    124.92645371	     44.89795625	      0.00000000	      0.00000000
      2.24000001	     33.22686371	      3.09508822	   -166.91855705	     -0.53030382	      0.84632297	      0.54584542	     17.54130664	     14.69024743	     20.63744449	     29.55354860	      0.51580673	    -10.30573043	      0.00000000	      0.00000000	     63.63241768	     10.47307322	     13.37241846	     41.16530518	      0.71847011	      2.37964823	      0.00000000	      0.00000000	     14.73504518	     -6.61013070	      3.39633370	     53.15305010	     15.38913397	     77.93421191	    110.85285452	     40.02545718	      0.00000000	      0.00000000	     34.53509404	      8.86394354	     69.88076586	    124.94682277	     44.98893030	      0.00000000	      0.00000000
      2.25000000	     33.01535124	      2.99015360	   -167.44521320	     -0.54240455	      0.84969732	      0.54570460	     19.32813237	     14.32585457	     17.18108631	     33.17496431	      0.57901236	     -8.01162069	      0.00000000	      0.00000000	     62.42113755	      9.94860266	     13.38929661	     41.06874350	      0.71678479	      2.98802551	      0.00000000	      0.00000000	     14.65033656	     -6.24305250	      3.57901434	     53.02215448	     15.36357278	     77.94309018	    110.88792707	     40.06563161	      0.00000000	      0.00000000	     34.28253988	      8.94418930	     69.79472895	    124.94251608	     45.05416056	      0.00000000	      0.00000000
      2.25999999	     32.89043123	      2.75151548	   -168.07949943	     -0.55444644	      0.85330887	      0.54562032	     21.47556837	     13.60381901	     13.90389357	     37.16850796	      0.64871284	     -5.62085417	      0.00000000	      0.00000000	     61.11242940	      9.43564755	     13.28982379	     40.65138242	      0.70950047	      3.39014654	      0.00000000	      0.00000000	     14.67776684	     -5.97822905	      3.72750275	     52.73718644	     15.31119407	     78.01009450	    110.93204125	     40.13308017	      0.00000000	      0.00000000	     33.87927151	      8.92200059	     69.67468754	    124.88017759	     45.15948618	      0.00000000	      0.00000000
      2.26999998	     32.59086561	      2.54014922	   -168.62930905	     -0.56639996	      0.85709075	      0.54568132	     23.60054559	     12.67690952	     10.70509278	     41.22337755	      0.71948367	     -3.38304959	      0.00000000	      0.00000000	     59.56593615	      8.98096258	     13.37526780	     40.16755039	      0.70105601	      4.02331837	      0.00000000	      0.00000000	     14.47314780	     -5.63571478	      3.66130355	     52.51512884	     15.27355318	     78.00087457	    110.97523694	     40.17275456	      0.00000000	      0.00000000	     33.56837551	      9.00548319	     69.60019801	    124.82756092	     45.21350542	      0.00000000	      0.00000000
      2.27999997	     32.34676094	      2.29269913	   -169.19904048	     -0.57814920	      0.86097337	      0.54581439	     25.86756899	     11.52150065	      7.86552345	     45.25695956	      0.78988295	     -1.27944092	      0.00000000	      0.00000000	     57.97927635	      8.55878696	     13.41218921	     39.46379336	      0.68877313	      4.46493730	      0.00000000	      0.00000000	     14.31204024	     -5.29359630	      3.51275163	     52.20094743	     15.18397587	     78.00185523	    111.03861639	     40.20675670	      0.00000000	      0.00000000	     33.25622375	      9.10407964	     69.57040876	    124.76794579	     45.25241238	      0.00000000	      0.00000000
      2.28999996	     32.24969056	      1.89362512	   -169.77306668	     -0.58963723	      0.86487150	      0.54600936	     28.38496033	     10.05618434	      5.42651253	     49.29015819	      0.86027555	      0.72191240	      0.00000000	      0.00000000	     56.41037406	      8.24388060	     13.22607422	     38.45633087	      0.67118959	      4.64797190	      0.00000000	      0.00000000	     14.35771999	     -5.12995228	      3.31301884	     51.82577650	     15.11124036	     77.93471872	    111.12026565	     40.26103728	      0.00000000	      0.00000000	     32.93470069	      9.02724841	     69.46804470	    124.68169809	     45.31704780	      0.00000000	      0.00000000
      2.29999995	     32.11680786	      1.62886999	   -170.27898801	     -0.60087731	      0.86874096	      0.54627151	     30.98360788	      8.61555061	      3.23775414	     53.13452264	      0.92737237	      2.21556336	      0.00000000	      0.00000000	     54.88012593	      7.93092095	     13.18702512	     37.52298884	      0.65489970	      4.88324891	      0.00000000	      0.00000000	     14.32045864	     -4.79368698	      2.97309151	     51.53707842	     14.97963275	     77.83180998	    111.21153043	     40.30451238	      0.00000000	      0.00000000	     32.74808796	      9.13967063	     69.37965322	    124.55542549	     45.35311347	      0.00000000	      0.00000000
      2.30999994	     32.02895479	      1.33412582	   -170.82447535	     -0.61189195	      0.87252501	      0.54657451	     33.70611490	      7.09842409	      1.48514880	     56.78370001	      0.99106253	      3.59990933	      0.00000000	      0.00000000	     53.37151857	      7.64163219	     13.10857954	     36.46203923	      0.63638264	      4.94863075	      0.00000000	      0.00000000	     14.31046649	     -4.44301243	      2.67038830	     51.26785929	     14.83468653	     77.70848635	    111.34384873	     40.35102371	      0.00000000	      0.00000000	     32.58799015	      9.20641892	     69.38812213	    124.47934235	     45.38839413	      0.00000000	      0.00000000
      2.31999993	     31.93163119	      1.04169954	   -171.38146495	     -0.62267118	      0.87614301	      0.54692991	     36.50829359	      5.56031161	      0.08296279	     60.21638863	      1.05097425	      5.01416992	      0.00000000	      0.00000000	     51.87356705	      7.35946893	     12.98613386	     35.40361882	      0.61790972	      4.98314488	      0.00000000	      0.00000000	     14.25618271	     -4.04675573	      2.35284755	     51.11967552	     14.69519602	     77.57883162	    111.49580354	     40.39545641	      0.00000000	      0.00000000	     32.52497646	      9.31838507	     69.39076017	    124.40764642	     45.41851512	      0.00000000	      0.00000000
      2.32999992	     31.82026940	      0.65926608	   -171.94013176	     -0.63343813	      0.87958042	      0.54725284	     39.32746903	      3.95789271	     -0.95787506	     63.34183694	      1.10552361	      6.63376002	      0.00000000	      0.00000000	     50.32469294	      7.15529461	     12.79386200	     34.28048326	      0.59830730	      5.00542140	      0.00000000	      0.00000000	     14.16063146	     -3.75092147	      2.02401726	     51.08034398	     14.54719984	     77.45395324	    111.64874073	     40.43943503	      0.00000000	      0.00000000	     32.54826150	      9.43507646	     69.37564180	    124.32833813	     45.44906141	      0.00000000	      0.00000000
      2.33999991	     31.65349827	      0.21765982	   -172.52707872	     -0.64420216	      0.88289021	      0.54744982	     42.10767579	      2.40801320	     -1.59146790	     66.06749409	      1.15309530	      8.31324963	      0.00000000	      0.00000000	     48.69524649	      6.98209892	     12.49392613	     33.09681801	      0.57764845	      4.93873040	      0.00000000	      0.00000000	     13.96102321	     -3.49194461	      1.75492782	     51.07064622	     14.41181523	     77.36352493	    111.80479617	     40.49178766	      0.00000000	      0.00000000	     32.59660323	      9.50807304	     69.36581030	    124.22615639	     45.49390139	      0.00000000	      0.00000000
      2.34999990	     31.52143250	     -0.12458242	   -173.19006037	     -0.65479339	      0.88583200	      0.54732152	     44.98702304	      1.14491900	     -1.90765972	     68.36454832	      1.19318646	      9.62039168	      0.00000000	      0.00000000	     47.18289085	      6.71537020	     12.25018990	     32.05027865	      0.55938289	      5.04272082	      0.00000000	      0.00000000	     13.78857471	     -3.12804063	      1.49993957	     51.26031098	     14.38854092	     77.33856153	    111.90884933	     40.52497805	      0.00000000	      0.00000000	     32.75297536	      9.66943402	     69.32094303	    124.17423974	     45.52979487	      0.00000000	      0.00000000
